<?xml version="1.0" encoding="utf-8"?>
<!-- Generator: Adobe Illustrator 26.0.2, SVG Export Plug-In . SVG Version: 6.00 Build 0)  -->
<svg version="1.1" id="Layer_1" xmlns="http://www.w3.org/2000/svg" xmlns:xlink="http://www.w3.org/1999/xlink" x="0px" y="0px"
	 viewBox="0 0 940 660" style="enable-background:new 0 0 940 660;" xml:space="preserve">
<style type="text/css">
	.st0{fill:#EBB94D;}
	.st1{fill:none;stroke:#282D3D;stroke-width:1.5;stroke-linecap:round;stroke-linejoin:round;stroke-miterlimit:10;}
	.st2{fill:#8C52FF;}
	.st3{fill:#282D3D;stroke:#282D3D;stroke-width:1.5;stroke-linecap:round;stroke-linejoin:round;stroke-miterlimit:10;}
	.st4{fill:#FFFFFF;stroke:#282D3D;stroke-width:1.5;stroke-linecap:round;stroke-linejoin:round;stroke-miterlimit:10;}
	.st5{fill:#282D3D;}
	.st6{opacity:0.5;fill:#D0D1D4;}
	.st7{fill:none;stroke:#FFFFFF;stroke-width:1.5;stroke-linecap:round;stroke-linejoin:round;stroke-miterlimit:10;}
	.st8{fill:#D0D1D4;}
	.st9{fill:none;stroke:#D0D1D4;stroke-width:1.5;stroke-linecap:round;stroke-linejoin:round;stroke-miterlimit:10;}
	.st10{fill:none;stroke:#B4B5B8;stroke-width:1.5;stroke-linecap:round;stroke-linejoin:round;stroke-miterlimit:10;}
	.st11{clip-path:url(#SVGID_00000059305401650680802040000015455945930106035386_);}
	.st12{fill:none;stroke:#8C52FF;stroke-width:1.5;stroke-linecap:round;stroke-linejoin:round;stroke-miterlimit:10;}
	.st13{fill:#EBB94D;stroke:#EBB94D;stroke-width:1.5;stroke-linecap:round;stroke-linejoin:round;stroke-miterlimit:10;}
	
		.st14{fill:none;stroke:#8C52FF;stroke-width:1.5;stroke-linecap:round;stroke-linejoin:round;stroke-miterlimit:10;stroke-dasharray:6;}
	.st15{fill:#8C52FF;stroke:#8C52FF;stroke-width:1.5;stroke-linecap:round;stroke-linejoin:round;stroke-miterlimit:10;}
	.st16{fill:#B4B5B8;}
	.st17{fill:#D0D1D4;stroke:#282D3D;stroke-width:1.5;stroke-linecap:round;stroke-linejoin:round;stroke-miterlimit:10;}
	.st18{fill:#6D40C7;}
	.st19{fill:#EDEDED;}
	.st20{fill:#FFFFFF;stroke:#B4B5B8;stroke-width:1.5;stroke-linecap:round;stroke-linejoin:round;stroke-miterlimit:10;}
</style>
<g>
	<path class="st0" d="M93.9,363.3l-23.5,23.8c-9,9.2-14.6,21.2-15.8,34L37.9,597.8h87.2l7.5-145.4l22.6,145.4h79.2l-37.1-201
		l-48-10.2L93.9,363.3z"/>
	<line class="st1" x1="86" y1="138.7" x2="134.4" y2="202.5"/>
	<line class="st1" x1="103.3" y1="200.2" x2="124.4" y2="213.8"/>
	<path class="st2" d="M291.6,332.9c-0.9-5.7-4.2-10.6-9-13.7L251.7,300l-20.6,24.5l-20.1-50l-26.9-15c-19.9-11.1-44.9-2.5-53.9,18.4
		l-36.4,85.4l55.5,23.3l18.1,73.9c6,24.5,33.8,36.3,55.6,23.6l24.3-14.8l16.4,82.6l60.1-6.9L291.6,332.9z M226.5,405.9l-5.6-18.7
		l10.4-11.1l5.7,23.7L226.5,405.9z"/>
	<line class="st1" x1="20.8" y1="597.8" x2="599.1" y2="597.8"/>
	<polyline class="st1" points="125.2,597.8 132.7,452.4 153.9,452.4 	"/>
	<path class="st1" d="M200.1,308.2l26.4,97.7l51.9-29.8l19.4,65.3l-78.1,43.1c-20.7,11.4-46.7-0.1-52.1-23.1l-33.4-141.9"/>
	<polyline class="st1" points="218.9,413.6 226.5,405.9 231.6,420.5 	"/>
	<line class="st1" x1="220.9" y1="387.2" x2="254.8" y2="352.6"/>
	<line class="st1" x1="254.8" y1="389.6" x2="271.1" y2="456.2"/>
	<circle class="st1" cx="280.1" cy="437.5" r="4.1"/>
	<circle class="st1" cx="273.6" cy="536.6" r="4.1"/>
	<polyline class="st1" points="255.1,508.2 263.8,551.9 323.9,545 313.7,478.4 	"/>
	<line class="st1" x1="258.8" y1="526.8" x2="319.5" y2="516.2"/>
	<line class="st1" x1="88" y1="373.8" x2="153.2" y2="400.2"/>
	<line class="st1" x1="97.4" y1="377.6" x2="102.9" y2="367.1"/>
	<line class="st1" x1="110.5" y1="382.9" x2="115.5" y2="372.3"/>
	<line class="st1" x1="122.7" y1="387.9" x2="127.3" y2="377.3"/>
	<line class="st1" x1="134.2" y1="392.5" x2="138.7" y2="382.1"/>
	<line class="st1" x1="145.8" y1="397.2" x2="150.1" y2="386.7"/>
	<path class="st3" d="M277.9,199.6c0,0,9-11.7,22.8-4.9c13.8,6.8-0.5,25.4-0.5,25.4l-61.6,48.8L227,258.7c0,0-19.7-24.2-5.4-49.1
		S264.2,185.4,277.9,199.6z"/>
	<path class="st4" d="M316.7,241.1l-10.6-0.7c-3.6-44.2-27.4-36.9-27.4-36.9c3.4,35.8-21.9,35.6-21.9,35.6l0,0
		c-1.6-5.8-7.4-9.7-13.7-9.7c-7.5,0-13.7,6.1-13.7,13.7c0,3.7,1.5,7.1,3.9,9.6l0,0L211,274.4l20.1,50l36.5-43.2
		c0,0,12.5,12.9,28,7.4c19.4-6.9,11-36.8,11-36.8L316.7,241.1z"/>
	<path class="st1" d="M251.1,254c-2.3,1.7-5.1,2.7-8.1,2.7c-7.5,0-13.7-6.1-13.7-13.7c0-7.5,6.1-13.7,13.7-13.7"/>
	<polygon class="st3" points="267.6,281.3 257.8,272 259.6,290.7 	"/>
	<polyline class="st1" points="242.8,236.9 244.2,246.5 237.2,241.7 	"/>
	<path class="st1" d="M282,237.8c0,0-1.3-7.8,6.7-7.9"/>
	<path class="st1" d="M287.7,251.8c0,0,6,10.5,13.7,3.3"/>
	<ellipse class="st5" cx="292" cy="240.3" rx="1" ry="1.2"/>
	<circle class="st6" cx="271" cy="247.7" r="6.9"/>
	<polyline class="st1" points="273.1,189.7 277.9,199.6 280.1,185 	"/>
	<circle class="st3" cx="192.5" cy="224.7" r="23.5"/>
	<path class="st7" d="M261.6,229.3c0,0,12.1-4,8.1-21.5"/>
	<line class="st1" x1="190.4" y1="262.9" x2="211" y2="274.4"/>
	<line class="st1" x1="251.7" y1="300" x2="270.5" y2="311.7"/>
	<path class="st4" d="M273.6,550.8l8.7,31c2.7,9.4,11.3,16,21.1,16h103.8c3.6,0,6.5-2.9,6.5-6.5l0,0c0-3.1-2.2-5.8-5.3-6.4
		l-79.9-14.9l-4.6-25.1L273.6,550.8z"/>
	<path class="st4" d="M336.7,580l31.1,6.4c2.7,0.6,4.6,2.9,4.6,5.6l0,0c0,3.2-2.6,5.8-5.8,5.8h-32.2"/>
	<path class="st4" d="M375.6,582.7l24.5,4.1c3,0.5,5,3.3,4.6,6.2l0,0c-0.4,2.7-2.7,4.8-5.5,4.8h-18.9"/>
	<polygon class="st3" points="273.6,550.8 325.6,554.1 323.9,545 	"/>
	<path class="st4" d="M358.5,353.8c0,1.8-0.8,3.5-2.4,4.6l-8.4,5.9c0,0,4.8,5.5,1.3,10.1c0,0,4.6,3.6,1.8,9.4c0,0,6.2,4.9,2.2,13
		c-2.7,5.5-36,26.9-56.6,39.8l-17.2-57.7l34.9-19.9c4-2.3,8.7-2.8,13.1-1.5l6.7,2.1l16.1-10.3c2.5-1.6,5.7-1,7.4,1.4
		C358.1,351.5,358.5,352.6,358.5,353.8z"/>
	<line class="st4" x1="323.2" y1="366.4" x2="333.8" y2="359.4"/>
	<line class="st4" x1="330.2" y1="376.2" x2="347.7" y2="364.2"/>
	<path class="st4" d="M349,374.3c0,0-1.9,3-7.3,6.1c-5.3,3.1-7.3,4.2-7.3,4.2"/>
	<path class="st4" d="M350.7,383.7c0,0-4.9,6.3-11.8,9.3"/>
	<line class="st4" x1="328.5" y1="373.3" x2="341.2" y2="397.4"/>
	<line class="st4" x1="326" y1="380.7" x2="334.4" y2="395.5"/>
	<polygon class="st3" points="296.3,436.4 285.1,375.3 279.2,378.7 	"/>
	<rect x="361.7" y="55.6" class="st8" width="121.2" height="78.6"/>
	<rect x="394" y="77.6" class="st4" width="230.3" height="230.3"/>
	<line class="st1" x1="658.2" y1="597.8" x2="739.3" y2="597.8"/>
	<line class="st1" x1="535.5" y1="627.9" x2="695.4" y2="627.9"/>
	<circle class="st2" cx="818.2" cy="386.6" r="6.3"/>
	<circle class="st2" cx="838.2" cy="386.6" r="6.3"/>
	<circle class="st2" cx="858.2" cy="386.6" r="6.3"/>
	<path class="st1" d="M867.5,563.1H643.8c-13,0-23.4-10.5-23.4-23.4V410.1c0-13,10.5-23.4,23.4-23.4h223.7c13,0,23.4,10.5,23.4,23.4
		v129.6C891,552.6,880.5,563.1,867.5,563.1z"/>
	<rect x="662.8" y="88.6" class="st8" width="217.5" height="205.4"/>
	<polyline class="st9" points="674.2,84.8 674.2,70.4 894.8,70.4 894.8,277.2 884,277.2 	"/>
	<line class="st4" x1="394" y1="98.6" x2="624.3" y2="98.6"/>
	<rect x="609.2" y="63" class="st2" width="25.7" height="25.7"/>
	<line class="st4" x1="609.2" y1="63" x2="634.9" y2="88.7"/>
	<line class="st4" x1="609.2" y1="88.7" x2="634.9" y2="63"/>
	<path class="st1" d="M857.2,155H685.9c-5.2,0-9.5-4.2-9.5-9.5v0c0-5.2,4.2-9.5,9.5-9.5h171.3c5.2,0,9.5,4.2,9.5,9.5v0
		C866.7,150.7,862.4,155,857.2,155z"/>
	<rect x="676.5" y="168.8" class="st10" width="190.2" height="44.9"/>
	<rect x="676.5" y="228.8" class="st10" width="190.2" height="44.9"/>
	<rect x="637.7" y="429.6" class="st8" width="236" height="52.6"/>
	<g>
		<defs>
			<rect id="SVGID_1_" x="637.7" y="429.6" width="236" height="52.6"/>
		</defs>
		<clipPath id="SVGID_00000009559499620280832760000005827823976605228959_">
			<use xlink:href="#SVGID_1_"  style="overflow:visible;"/>
		</clipPath>
		<g style="clip-path:url(#SVGID_00000009559499620280832760000005827823976605228959_);">
			<line class="st12" x1="635.2" y1="467.3" x2="682.1" y2="425.4"/>
			<polyline class="st12" points="637.7,429.6 755.7,489.2 811.9,425.4 880.2,455.9 			"/>
			<polyline class="st12" points="692.3,485.9 761.5,425.4 844.5,494.2 848,420.8 			"/>
		</g>
	</g>
	<line class="st10" x1="692.3" y1="179.6" x2="749.9" y2="179.6"/>
	<line class="st10" x1="692.3" y1="191.3" x2="797.2" y2="191.3"/>
	<line class="st10" x1="692.3" y1="239.6" x2="822" y2="239.6"/>
	<line class="st10" x1="692.3" y1="251.3" x2="759.1" y2="251.3"/>
	<circle class="st12" cx="687.5" cy="107.8" r="10.2"/>
	<line class="st12" x1="695.2" y1="114.6" x2="705.4" y2="123.5"/>
	<path class="st2" d="M710.7,548h-67.5c-3,0-5.5-2.5-5.5-5.5v-11.9c0-3,2.5-5.5,5.5-5.5h67.5c3,0,5.5,2.5,5.5,5.5v11.9
		C716.2,545.6,713.7,548,710.7,548z"/>
	<polygon class="st3" points="855,546.3 808.8,519.6 808.7,573 823.2,564.7 837.6,589.7 855,579.7 840.6,554.7 	"/>
	<circle class="st10" cx="650.1" cy="503.2" r="10.1"/>
	<line class="st10" x1="675.1" y1="497.6" x2="692.3" y2="497.6"/>
	<line class="st10" x1="675.1" y1="507.7" x2="782.8" y2="507.7"/>
	<polyline class="st1" points="692.3,407.4 692.3,351.2 414.7,351.2 414.7,290.9 	"/>
	<rect x="861.5" y="501.6" class="st13" width="15.7" height="15.7"/>
	<rect x="686.9" y="405.5" class="st4" width="10.7" height="10.7"/>
	<polyline class="st1" points="545.5,77.9 545.5,34.5 804.2,34.5 804.2,100.8 	"/>
	<polyline class="st14" points="605.4,190.1 640.7,190.1 640.7,251.3 680.2,251.3 	"/>
	<rect x="672" y="246" class="st3" width="10.7" height="10.7"/>
	<rect x="798.8" y="95.5" class="st15" width="10.7" height="10.7"/>
	<rect x="414.7" y="277" class="st8" width="80.7" height="13.4"/>
	<rect x="505" y="277" class="st12" width="101.1" height="13.4"/>
	<rect x="414.7" y="253" class="st10" width="121" height="13.4"/>
	<rect x="549.3" y="253" class="st8" width="56.7" height="13.4"/>
	<rect x="409.3" y="285.6" class="st15" width="10.7" height="10.7"/>
	<rect x="394" y="413.2" class="st8" width="196.6" height="149.9"/>
	<rect x="380.6" y="413.2" class="st16" width="13.5" height="149.9"/>
	<circle class="st1" cx="492.3" cy="483.2" r="10.7"/>
	<path class="st17" d="M437.7,590.2L437.7,590.2c0-4.2,3.4-7.5,7.5-7.5h41.4c2.5,0,4.3-2.4,3.7-4.8l-11.1-42.1
		c-2.3-8.8,4.3-17.4,13.4-17.4h4.1c6,0,11.4,3.9,13.2,9.7l15.3,48.6c3.3,10.4-4.5,21-15.4,21h-64.4
		C441.1,597.8,437.7,594.4,437.7,590.2z"/>
	<polygon class="st13" points="687.6,34.5 704.6,44.3 704.6,24.8 	"/>
	<rect x="414" y="118.6" class="st10" width="112.1" height="74.1"/>
	<rect x="414.7" y="209" class="st1" width="134.7" height="29.6"/>
	<circle class="st2" cx="582.6" cy="219.6" r="6.1"/>
	<path class="st2" d="M593.5,235.2c-2.8,2.7-6.7,4.4-10.9,4.4s-8.1-1.7-10.9-4.4c1.8-4.2,6.1-7.2,10.9-7.2
		C587.5,228,591.7,231,593.5,235.2z"/>
	<path class="st1" d="M598.4,223.8c0,4.5-1.9,8.5-4.9,11.4c-2.8,2.7-6.7,4.4-10.9,4.4s-8.1-1.7-10.9-4.4c-3-2.9-4.9-6.9-4.9-11.4
		c0-8.7,7.1-15.8,15.8-15.8S598.4,215.1,598.4,223.8z"/>
	<rect x="535.6" y="141.9" class="st8" width="56.7" height="9.5"/>
	<rect x="535.6" y="159.4" class="st12" width="70.4" height="9.5"/>
	<g>
		<path class="st5" d="M717.4,117.9c-2.6,0-4.7-1.4-4.7-3.8h2.7c0.1,1,0.7,1.7,1.9,1.7c1.2,0,1.9-0.6,1.9-1.5c0-2.7-6.5-1.1-6.5-5.7
			c0-2.3,1.9-3.7,4.5-3.7c2.6,0,4.4,1.3,4.5,3.6h-2.8c-0.1-0.8-0.7-1.5-1.8-1.5c-1,0-1.7,0.5-1.7,1.5c0,2.5,6.5,1.1,6.5,5.6
			C721.8,116.1,720.2,117.9,717.4,117.9z"/>
		<path class="st5" d="M728.4,117.9c-2.9,0-5-2-5-5.2c0-3.2,2.1-5.2,5-5.2c2.9,0,5,2,5,5c0,0.3,0,0.7-0.1,1H726
			c0.1,1.5,1.1,2.3,2.4,2.3c1.1,0,1.7-0.5,2-1.2h2.7C732.6,116.4,730.9,117.9,728.4,117.9z M726,111.8h4.8c0-1.3-1.1-2.2-2.4-2.2
			C727.1,109.6,726.2,110.4,726,111.8z"/>
		<path class="st5" d="M739.2,107.5c1.6,0,2.7,0.8,3.3,1.6v-1.4h2.6v10.1h-2.6v-1.5c-0.6,0.9-1.7,1.6-3.3,1.6
			c-2.5,0-4.6-2.1-4.6-5.2C734.6,109.5,736.6,107.5,739.2,107.5z M739.8,109.8c-1.4,0-2.7,1-2.7,2.9c0,1.9,1.3,3,2.7,3
			c1.4,0,2.7-1.1,2.7-3S741.2,109.8,739.8,109.8z"/>
		<path class="st5" d="M750.1,117.7h-2.5v-10.1h2.5v1.6c0.6-1,1.7-1.7,3.1-1.7v2.7h-0.7c-1.5,0-2.4,0.6-2.4,2.5V117.7z"/>
		<path class="st5" d="M759.2,107.5c2.5,0,4.2,1.3,4.7,3.6h-2.7c-0.3-0.9-1-1.4-2-1.4c-1.4,0-2.4,1.1-2.4,3s0.9,3,2.4,3
			c1.1,0,1.7-0.5,2-1.4h2.7c-0.5,2.1-2.2,3.6-4.7,3.6c-2.9,0-5-2-5-5.2S756.3,107.5,759.2,107.5z"/>
		<path class="st5" d="M765.8,104.3h2.5v4.6c0.7-0.9,1.8-1.4,3.1-1.4c2.3,0,3.9,1.5,3.9,4.3v5.9h-2.5v-5.6c0-1.6-0.9-2.5-2.2-2.5
			c-1.4,0-2.3,0.9-2.3,2.5v5.6h-2.5V104.3z"/>
	</g>
	<g>
		<path class="st5" d="M742.1,417.2h-5.5v-12.7h5.2c2.7,0,4.1,1.4,4.1,3.3c0,1.5-0.9,2.5-2.2,2.9c1.4,0.3,2.5,1.6,2.5,3.1
			C746.2,415.8,744.7,417.2,742.1,417.2z M741.5,406.6h-2.3v3.2h2.3c1.2,0,1.9-0.5,1.9-1.6C743.4,407.2,742.7,406.6,741.5,406.6z
			 M741.7,411.7h-2.5v3.4h2.6c1.2,0,2-0.6,2-1.7C743.7,412.4,742.9,411.7,741.7,411.7z"/>
		<path class="st5" d="M748.3,403.8h2.5v13.4h-2.5V403.8z"/>
		<path class="st5" d="M757.8,417.4c-2.9,0-5.1-2-5.1-5.2c0-3.2,2.3-5.2,5.2-5.2s5.2,2,5.2,5.2C763,415.3,760.7,417.4,757.8,417.4z
			 M757.8,415.1c1.3,0,2.6-1,2.6-3c0-2-1.3-3-2.6-3s-2.6,1-2.6,3C755.3,414.2,756.4,415.1,757.8,415.1z"/>
		<path class="st5" d="M768.9,407c1.6,0,2.7,0.7,3.3,1.6v-1.4h2.6v10.1c0,2.7-1.7,4.9-5,4.9c-2.8,0-4.8-1.4-5.1-3.7h2.5
			c0.3,0.9,1.2,1.5,2.5,1.5c1.4,0,2.5-0.8,2.5-2.7v-1.6c-0.6,0.9-1.7,1.7-3.3,1.7c-2.6,0-4.6-2.1-4.6-5.2S766.3,407,768.9,407z
			 M769.5,409.2c-1.4,0-2.7,1-2.7,2.9s1.3,3,2.7,3c1.4,0,2.7-1.1,2.7-3C772.2,410.3,770.9,409.2,769.5,409.2z"/>
	</g>
	<g>
		<path class="st5" d="M540.3,126.9h-2.1v4.9h-2.5v-12.7h4.7c3,0,4.6,1.7,4.6,3.9C544.9,124.9,543.6,126.9,540.3,126.9z
			 M540.2,124.8c1.4,0,2.1-0.7,2.1-1.8c0-1.2-0.6-1.9-2.1-1.9h-2v3.7H540.2z"/>
		<path class="st5" d="M549.2,131.8h-2.5v-10.1h2.5v1.6c0.6-1,1.7-1.7,3.1-1.7v2.7h-0.7c-1.5,0-2.4,0.6-2.4,2.5V131.8z"/>
		<path class="st5" d="M558.5,131.9c-2.9,0-5.1-2-5.1-5.2c0-3.2,2.3-5.2,5.2-5.2s5.2,2,5.2,5.2C563.7,129.9,561.4,131.9,558.5,131.9
			z M558.5,129.7c1.3,0,2.6-1,2.6-3c0-2-1.3-3-2.6-3s-2.6,1-2.6,3C556,128.7,557.1,129.7,558.5,129.7z"/>
		<path class="st5" d="M569.6,121.5c1.3,0,2.6,0.6,3.3,1.6v-4.8h2.6v13.4h-2.6v-1.5c-0.6,0.9-1.7,1.7-3.3,1.7
			c-2.6,0-4.6-2.1-4.6-5.2C565,123.5,567,121.5,569.6,121.5z M570.2,123.8c-1.4,0-2.7,1-2.7,2.9c0,1.9,1.3,3,2.7,3
			c1.4,0,2.7-1.1,2.7-3S571.6,123.8,570.2,123.8z"/>
		<path class="st5" d="M587.4,131.8h-2.6v-1.3c-0.6,0.9-1.7,1.4-3,1.4c-2.3,0-4-1.5-4-4.3v-5.9h2.5v5.5c0,1.6,0.9,2.5,2.2,2.5
			c1.4,0,2.3-0.9,2.3-2.5v-5.5h2.6V131.8z"/>
		<path class="st5" d="M594.2,121.5c2.5,0,4.2,1.3,4.7,3.6h-2.7c-0.3-0.9-1-1.4-2-1.4c-1.4,0-2.4,1.1-2.4,3s0.9,3,2.4,3
			c1.1,0,1.7-0.5,2-1.4h2.7c-0.5,2.1-2.2,3.6-4.7,3.6c-2.9,0-5-2-5-5.2S591.3,121.5,594.2,121.5z"/>
		<path class="st5" d="M601.2,123.8h-1.2v-2.1h1.2v-2.5h2.6v2.5h2.3v2.1h-2.3v4.9c0,0.7,0.3,1,1.1,1h1.2v2.1h-1.6
			c-1.9,0-3.2-0.8-3.2-3.1V123.8z"/>
	</g>
	<polygon class="st13" points="482,213.7 484.3,220.7 491.7,220.7 485.7,225 488,232 482,227.7 476,232 478.3,225 472.3,220.7 
		479.7,220.7 	"/>
	<polygon class="st13" points="436,213.7 433.7,220.7 426.3,220.7 432.3,225 430,232 436,227.7 442,232 439.7,225 445.7,220.7 
		438.3,220.7 	"/>
	<polygon class="st13" points="459,213.7 461.3,220.7 468.7,220.7 462.7,225 465,232 459,227.7 453,232 455.3,225 449.3,220.7 
		456.7,220.7 	"/>
	<polygon class="st13" points="528,213.7 530.3,220.7 537.7,220.7 531.7,225 534,232 528,227.7 522,232 524.3,225 518.3,220.7 
		525.7,220.7 	"/>
	<polygon class="st13" points="505,213.7 502.7,220.7 495.3,220.7 501.3,225 499,232 505,227.7 511,232 508.7,225 514.7,220.7 
		507.3,220.7 	"/>
	<g>
		<circle class="st8" cx="494.8" cy="135.1" r="5.6"/>
		<rect x="452.7" y="152.4" class="st18" width="7.9" height="7"/>
		<path class="st2" d="M506,145.7c-4.5-9.8-17-17.2-22.5-20.1c-1.2-0.6-2.6,0.2-2.6,1.6v7.2c0,0-15.2-11.2-30.1-6
			c-18.5,6.3-16.9,32.5-16.9,32.5s0,0,0,0c0.1,2.7,0.5,5.5,1.1,8.1c1.4,5.2,3.9,10.1,8.2,13.6c6.3,5.4,16.9,5.9,22.7-0.8
			c5.2-5.4,3.5-17.1-4.7-18.4c-3.9-0.5-8.6,2.1-8.6,6.4c0.2,3.1,2.8,5.2,5.7,3.9c-1.8-0.3-3.1-1.4-2.6-3.2c0.1-0.4,0.3-0.7,0.6-1
			c1-0.6,2.6-0.8,3.5-0.2c1,0.9,0.8,2,0.6,3.8c-1.4,4.4-7.7,3.8-10.6,1.1c-1-0.7-1.9-1.8-2.7-3c0,0,0,0,0,0
			c-4.2-7.6-2.2-17.5-2.2-17.5l49.3,0.2c2.8,0,5.3-1.3,7-3.5l2.5-3.4h1.1C505.8,147.4,506.3,146.5,506,145.7z"/>
		<rect x="452.7" y="152.4" class="st2" width="5.2" height="7"/>
		<rect x="480.4" y="152.4" class="st18" width="7.9" height="7"/>
		<rect x="480.4" y="152.4" class="st2" width="5.2" height="7"/>
		<line class="st4" x1="490.5" y1="147.7" x2="503.5" y2="147.7"/>
		<circle class="st19" cx="486.3" cy="139.8" r="5.6"/>
		<circle class="st5" cx="485.1" cy="138.1" r="0.9"/>
	</g>
	<rect x="594.7" y="184.7" class="st20" width="10.7" height="10.7"/>
</g>
</svg>
